<?xml version="1.0" standalone="no"?>
<!DOCTYPE svg PUBLIC "-//W3C//DTD SVG 20010904//EN"
 "http://www.w3.org/TR/2001/REC-SVG-20010904/DTD/svg10.dtd">
<svg version="1.0" xmlns="http://www.w3.org/2000/svg"
 width="900.000000pt" height="700px" viewBox="0 0 900.000000 550.000000"
 preserveAspectRatio="xMidYMid meet">

<g transform="translate(0.000000,550.000000) scale(0.100000,-0.100000)"
fill="#FF0000" stroke="none">
<path d="M2690 5253 c-78 -13 -185 -50 -264 -90 -74 -39 -108 -64 -186 -143
-108 -108 -171 -214 -212 -355 l-23 -80 0 -1835 c0 -2080 -8 -1877 87 -2070
44 -91 63 -117 142 -196 106 -105 191 -159 326 -206 l95 -33 1805 -3 c1985 -3
1873 -6 2036 57 172 67 330 214 415 386 92 187 84 -11 84 2065 l0 1835 -23 78
c-71 246 -242 439 -475 535 -152 64 -39 60 -1997 60 -982 0 -1796 -3 -1810 -5z
m2120 -964 c237 -21 447 -77 588 -155 97 -54 210 -170 255 -264 69 -141 99
-327 78 -488 -29 -229 -146 -398 -339 -490 l-73 -35 49 -17 c260 -92 426 -290
483 -575 16 -85 14 -305 -5 -391 -77 -356 -327 -565 -769 -644 -187 -33 -303
-37 -1064 -39 l-733 -1 0 1555 0 1555 708 0 c414 0 755 -4 822 -11z"/>
<path d="M4090 3430 l0 -331 293 3 c279 3 295 4 351 27 128 51 189 145 190
291 1 131 -37 213 -122 270 -87 57 -120 63 -429 68 l-283 4 0 -332z"/>
<path d="M4090 2145 l0 -405 288 0 c366 0 449 16 558 105 113 93 155 333 85
490 -28 62 -91 127 -156 159 -99 48 -162 56 -482 56 l-293 0 0 -405z"/>
</g>
</svg>
