<?xml version="1.0" encoding="UTF-8"?>
<!DOCTYPE svg PUBLIC "-//W3C//DTD SVG 1.1//EN" "http://www.w3.org/Graphics/SVG/1.1/DTD/svg11.dtd">
<svg xmlns="http://www.w3.org/2000/svg" version="1.1" width="360px" height="508px" style="shape-rendering:geometricPrecision; text-rendering:geometricPrecision; image-rendering:optimizeQuality; fill-rule:evenodd; clip-rule:evenodd" xmlns:xlink="http://www.w3.org/1999/xlink">
<g><path style="opacity:1" fill="#f4f4f5" d="M -0.5,-0.5 C 27.8333,-0.5 56.1667,-0.5 84.5,-0.5C 84.5,22.1667 84.5,44.8333 84.5,67.5C 102.5,67.5 120.5,67.5 138.5,67.5C 138.5,60.1667 138.5,52.8333 138.5,45.5C 127.833,45.5 117.167,45.5 106.5,45.5C 106.5,37.8333 106.5,30.1667 106.5,22.5C 117.167,22.5 127.833,22.5 138.5,22.5C 138.5,14.8333 138.5,7.16667 138.5,-0.5C 142.167,-0.5 145.833,-0.5 149.5,-0.5C 149.333,14.1705 149.5,28.8371 150,43.5C 160.418,44.4866 170.918,44.8199 181.5,44.5C 181.5,45.8333 181.5,47.1667 181.5,48.5C 170.833,48.5 160.167,48.5 149.5,48.5C 149.5,55.1667 149.5,61.8333 149.5,68.5C 167.836,68.6666 186.17,68.4999 204.5,68C 203.509,53.245 203.176,38.4116 203.5,23.5C 193.167,23.5 182.833,23.5 172.5,23.5C 172.5,22.1667 172.5,20.8333 172.5,19.5C 182.833,19.5 193.167,19.5 203.5,19.5C 203.5,12.8333 203.5,6.16667 203.5,-0.5C 207.5,-0.5 211.5,-0.5 215.5,-0.5C 215.5,14.1667 215.5,28.8333 215.5,43.5C 225.653,44.4942 235.986,44.8276 246.5,44.5C 246.5,45.8333 246.5,47.1667 246.5,48.5C 236.167,48.5 225.833,48.5 215.5,48.5C 215.5,55.1667 215.5,61.8333 215.5,68.5C 233.5,68.5 251.5,68.5 269.5,68.5C 269.5,53.5 269.5,38.5 269.5,23.5C 258.833,23.5 248.167,23.5 237.5,23.5C 237.5,22.1667 237.5,20.8333 237.5,19.5C 248.167,19.5 258.833,19.5 269.5,19.5C 269.5,12.8333 269.5,6.16667 269.5,-0.5C 299.5,-0.5 329.5,-0.5 359.5,-0.5C 359.5,168.833 359.5,338.167 359.5,507.5C 239.5,507.5 119.5,507.5 -0.5,507.5C -0.5,372.5 -0.5,237.5 -0.5,102.5C 10.9229,223.624 21.7562,344.957 32,466.5C 81.0021,480.558 130.169,493.891 179.5,506.5C 228.573,493.986 277.406,480.653 326,466.5C 337.372,344.224 348.205,221.891 358.5,99.5C 238.833,99.5 119.167,99.5 -0.5,99.5C -0.5,66.1667 -0.5,32.8333 -0.5,-0.5 Z"/></g>
<g><path style="opacity:1" fill="#000000" d="M 215.5,-0.5 C 233.5,-0.5 251.5,-0.5 269.5,-0.5C 269.5,6.16667 269.5,12.8333 269.5,19.5C 258.833,19.5 248.167,19.5 237.5,19.5C 237.5,20.8333 237.5,22.1667 237.5,23.5C 248.167,23.5 258.833,23.5 269.5,23.5C 269.5,38.5 269.5,53.5 269.5,68.5C 251.5,68.5 233.5,68.5 215.5,68.5C 215.5,61.8333 215.5,55.1667 215.5,48.5C 225.833,48.5 236.167,48.5 246.5,48.5C 247.451,47.0813 247.784,45.4147 247.5,43.5C 236.833,43.5 226.167,43.5 215.5,43.5C 215.5,28.8333 215.5,14.1667 215.5,-0.5 Z"/></g>
<g><path style="opacity:1" fill="#020202" d="M 149.5,-0.5 C 167.5,-0.5 185.5,-0.5 203.5,-0.5C 203.5,6.16667 203.5,12.8333 203.5,19.5C 193.167,19.5 182.833,19.5 172.5,19.5C 172.5,20.8333 172.5,22.1667 172.5,23.5C 182.833,23.5 193.167,23.5 203.5,23.5C 203.176,38.4116 203.509,53.245 204.5,68C 186.17,68.4999 167.836,68.6666 149.5,68.5C 149.5,61.8333 149.5,55.1667 149.5,48.5C 160.167,48.5 170.833,48.5 181.5,48.5C 181.5,47.1667 181.5,45.8333 181.5,44.5C 170.918,44.8199 160.418,44.4866 150,43.5C 149.5,28.8371 149.333,14.1705 149.5,-0.5 Z"/></g>
<g><path style="opacity:1" fill="#000000" d="M 84.5,-0.5 C 102.5,-0.5 120.5,-0.5 138.5,-0.5C 138.5,7.16667 138.5,14.8333 138.5,22.5C 127.833,22.5 117.167,22.5 106.5,22.5C 106.5,30.1667 106.5,37.8333 106.5,45.5C 117.167,45.5 127.833,45.5 138.5,45.5C 138.5,52.8333 138.5,60.1667 138.5,67.5C 120.5,67.5 102.5,67.5 84.5,67.5C 84.5,44.8333 84.5,22.1667 84.5,-0.5 Z"/></g>
<g><path style="opacity:1" fill="#313231" d="M 215.5,43.5 C 226.167,43.5 236.833,43.5 247.5,43.5C 247.784,45.4147 247.451,47.0813 246.5,48.5C 246.5,47.1667 246.5,45.8333 246.5,44.5C 235.986,44.8276 225.653,44.4942 215.5,43.5 Z"/></g>
<g><path style="opacity:1" fill="#254de4" d="M -0.5,99.5 C 119.167,99.5 238.833,99.5 358.5,99.5C 348.205,221.891 337.372,344.224 326,466.5C 277.406,480.653 228.573,493.986 179.5,506.5C 130.169,493.891 81.0021,480.558 32,466.5C 21.7562,344.957 10.9229,223.624 -0.5,102.5C -0.5,101.5 -0.5,100.5 -0.5,99.5 Z"/></g>
<g><path style="opacity:1" fill="#2964f0" d="M 179.5,429.5 C 210.044,420.764 240.71,412.431 271.5,404.5C 278.422,327.852 285.088,251.186 291.5,174.5C 254.167,174.5 216.833,174.5 179.5,174.5C 179.5,159.5 179.5,144.5 179.5,129.5C 228.5,129.5 277.5,129.5 326.5,129.5C 316.654,235.276 307.32,339.942 298.5,443.5C 258.836,453.957 219.336,464.957 180,476.5C 179.5,460.837 179.333,445.17 179.5,429.5 Z"/></g>
<g><path style="opacity:1" fill="#ececed" d="M 178.5,174.5 C 179.81,189.03 179.81,203.53 178.5,218C 179.416,218.278 180.082,218.778 180.5,219.5C 180.167,219.5 179.833,219.5 179.5,219.5C 143.167,219.5 106.833,219.5 70.5,219.5C 68.9775,204.511 67.6442,189.511 66.5,174.5C 103.833,174.5 141.167,174.5 178.5,174.5 Z"/></g>
<g><path style="opacity:1" fill="#fefefe" d="M 178.5,174.5 C 178.833,174.5 179.167,174.5 179.5,174.5C 216.833,174.5 254.167,174.5 291.5,174.5C 285.088,251.186 278.422,327.852 271.5,404.5C 240.71,412.431 210.044,420.764 179.5,429.5C 179.461,413.625 179.461,397.958 179.5,382.5C 196.088,377.853 212.754,373.52 229.5,369.5C 231.403,349.853 233.07,330.187 234.5,310.5C 182.833,310.5 131.167,310.5 79.5,310.5C 79.369,309.761 79.5357,309.094 80,308.5C 113.093,309.496 146.26,309.829 179.5,309.5C 179.824,295.255 179.49,281.088 178.5,267C 179.416,266.722 180.082,266.222 180.5,265.5C 199.833,265.5 219.167,265.5 238.5,265.5C 240.013,250.187 241.347,234.854 242.5,219.5C 221.833,219.5 201.167,219.5 180.5,219.5C 180.082,218.778 179.416,218.278 178.5,218C 179.81,203.53 179.81,189.03 178.5,174.5 Z"/></g>
<g><path style="opacity:1" fill="#2964f0" d="M 179.5,219.5 C 179.833,219.5 180.167,219.5 180.5,219.5C 201.167,219.5 221.833,219.5 242.5,219.5C 241.347,234.854 240.013,250.187 238.5,265.5C 219.167,265.5 199.833,265.5 180.5,265.5C 180.167,265.5 179.833,265.5 179.5,265.5C 179.5,250.167 179.5,234.833 179.5,219.5 Z"/></g>
<g><path style="opacity:1" fill="#ebeced" d="M 179.5,265.5 C 179.833,265.5 180.167,265.5 180.5,265.5C 180.082,266.222 179.416,266.722 178.5,267C 179.49,281.088 179.824,295.255 179.5,309.5C 146.26,309.829 113.093,309.496 80,308.5C 79.5357,309.094 79.369,309.761 79.5,310.5C 77.1991,295.699 75.5324,280.699 74.5,265.5C 109.5,265.5 144.5,265.5 179.5,265.5 Z"/></g>
<g><path style="opacity:1" fill="#2b65f0" d="M 79.5,310.5 C 131.167,310.5 182.833,310.5 234.5,310.5C 233.07,330.187 231.403,349.853 229.5,369.5C 212.754,373.52 196.088,377.853 179.5,382.5C 179.173,358.925 179.506,335.425 180.5,312C 146.664,311.832 112.998,311.332 79.5,310.5 Z"/></g>
<g><path style="opacity:1" fill="#ebeced" d="M 179.5,382.5 C 179.461,397.958 179.461,413.625 179.5,429.5C 148.544,421.011 117.544,412.678 86.5,404.5C 84.7901,380.809 82.7901,357.142 80.5,333.5C 95.8333,333.5 111.167,333.5 126.5,333.5C 126.642,345.453 127.642,357.286 129.5,369C 146.071,373.81 162.738,378.31 179.5,382.5 Z"/></g>
</svg>
