<?xml version="1.0" encoding="UTF-8"?>
<!DOCTYPE svg PUBLIC "-//W3C//DTD SVG 1.1//EN" "http://www.w3.org/Graphics/SVG/1.1/DTD/svg11.dtd">
<svg xmlns="http://www.w3.org/2000/svg" version="1.1" width="348px" height="300px" style="shape-rendering:geometricPrecision; text-rendering:geometricPrecision; image-rendering:optimizeQuality; fill-rule:evenodd; clip-rule:evenodd" xmlns:xlink="http://www.w3.org/1999/xlink">
<g><path style="opacity:1" fill="#f6f6f6" d="M -0.5,-0.5 C 115.5,-0.5 231.5,-0.5 347.5,-0.5C 347.5,99.5 347.5,199.5 347.5,299.5C 231.5,299.5 115.5,299.5 -0.5,299.5C -0.5,199.5 -0.5,99.5 -0.5,-0.5 Z"/></g>
<g><path style="opacity:1" fill="#030303" d="M 99.5,21.5 C 103.5,21.5 107.5,21.5 111.5,21.5C 111.5,25.1667 111.5,28.8333 111.5,32.5C 114.833,32.5 118.167,32.5 121.5,32.5C 121.5,28.8333 121.5,25.1667 121.5,21.5C 125.5,21.5 129.5,21.5 133.5,21.5C 133.5,33.1667 133.5,44.8333 133.5,56.5C 129.5,56.5 125.5,56.5 121.5,56.5C 121.5,52.5 121.5,48.5 121.5,44.5C 118.167,44.5 114.833,44.5 111.5,44.5C 111.5,48.5 111.5,52.5 111.5,56.5C 107.5,56.5 103.5,56.5 99.5,56.5C 99.5,44.8333 99.5,33.1667 99.5,21.5 Z"/></g>
<g><path style="opacity:1" fill="#080808" d="M 138.5,21.5 C 149.167,21.5 159.833,21.5 170.5,21.5C 170.5,25.5 170.5,29.5 170.5,33.5C 167.167,33.5 163.833,33.5 160.5,33.5C 160.5,41.1667 160.5,48.8333 160.5,56.5C 156.5,56.5 152.5,56.5 148.5,56.5C 148.5,48.8333 148.5,41.1667 148.5,33.5C 145.167,33.5 141.833,33.5 138.5,33.5C 138.5,29.5 138.5,25.5 138.5,21.5 Z"/></g>
<g><path style="opacity:1" fill="#050505" d="M 175.5,21.5 C 179.514,21.3345 183.514,21.5012 187.5,22C 189.709,25.586 192.043,29.086 194.5,32.5C 197.029,29.136 199.363,25.636 201.5,22C 205.821,21.501 210.154,21.3343 214.5,21.5C 214.5,33.1667 214.5,44.8333 214.5,56.5C 210.5,56.5 206.5,56.5 202.5,56.5C 202.666,51.1563 202.499,45.8229 202,40.5C 200.046,44.2816 197.546,47.6149 194.5,50.5C 191.768,47.3839 189.268,44.0506 187,40.5C 186.501,45.8229 186.334,51.1563 186.5,56.5C 182.833,56.5 179.167,56.5 175.5,56.5C 175.5,44.8333 175.5,33.1667 175.5,21.5 Z"/></g>
<g><path style="opacity:1" fill="#030303" d="M 219.5,21.5 C 223.5,21.5 227.5,21.5 231.5,21.5C 231.5,29.1667 231.5,36.8333 231.5,44.5C 236.833,44.5 242.167,44.5 247.5,44.5C 247.5,48.5 247.5,52.5 247.5,56.5C 238.167,56.5 228.833,56.5 219.5,56.5C 219.5,44.8333 219.5,33.1667 219.5,21.5 Z"/></g>
<g><path style="opacity:1" fill="#f06429" d="M 263.5,72.5 C 203.331,72.1676 143.331,72.5009 83.5,73.5C 82.9569,73.44 82.6236,73.1067 82.5,72.5C 142.999,71.1685 203.332,71.1685 263.5,72.5 Z"/></g>
<g><path style="opacity:1" fill="#e44c23" d="M 263.5,72.5 C 258.677,133.9 253.344,195.567 247.5,257.5C 222.771,263.849 198.105,270.516 173.5,277.5C 148.895,270.516 124.229,263.849 99.5,257.5C 93.7461,196.207 88.4128,134.873 83.5,73.5C 143.331,72.5009 203.331,72.1676 263.5,72.5 Z"/></g>
<g><path style="opacity:1" fill="#f0642a" d="M 174.5,238.5 C 189.623,233.797 204.956,229.464 220.5,225.5C 221.96,202.111 223.96,178.778 226.5,155.5C 209.008,154.503 191.341,154.17 173.5,154.5C 173.5,147.5 173.5,140.5 173.5,133.5C 192.008,133.83 210.341,133.497 228.5,132.5C 228.927,124.807 229.593,117.141 230.5,109.5C 211.674,108.503 192.674,108.17 173.5,108.5C 173.5,101.167 173.5,93.8333 173.5,86.5C 198.167,86.5 222.833,86.5 247.5,86.5C 243.747,133.821 239.413,181.321 234.5,229C 234.5,233.333 234.5,237.667 234.5,242C 233.939,243.676 232.939,245.009 231.5,246C 212.228,251.484 192.895,256.651 173.5,261.5C 172.889,253.722 173.556,246.222 175.5,239C 175.272,238.601 174.938,238.435 174.5,238.5 Z"/></g>
<g><path style="opacity:1" fill="#fefefe" d="M 230.5,109.5 C 229.593,117.141 228.927,124.807 228.5,132.5C 209.5,132.5 190.5,132.5 171.5,132.5C 173.41,125.444 174.076,118.111 173.5,110.5C 154.424,110.18 135.424,110.513 116.5,111.5C 154.152,109.506 192.152,108.839 230.5,109.5 Z"/></g>
<g><path style="opacity:1" fill="#edebeb" d="M 171.5,132.5 C 161.5,132.5 151.5,132.5 141.5,132.5C 141.934,137.668 142.6,142.668 143.5,147.5C 143.5,150.167 143.5,152.833 143.5,155.5C 153.319,156.494 163.319,156.827 173.5,156.5C 174.076,164.111 173.41,171.444 171.5,178.5C 155.167,178.5 138.833,178.5 122.5,178.5C 120.445,156.173 118.445,133.84 116.5,111.5C 135.424,110.513 154.424,110.18 173.5,110.5C 174.076,118.111 173.41,125.444 171.5,132.5 Z"/></g>
<g><path style="opacity:1" fill="#e44a22" d="M 171.5,132.5 C 190.5,132.5 209.5,132.5 228.5,132.5C 210.341,133.497 192.008,133.83 173.5,133.5C 173.5,140.5 173.5,147.5 173.5,154.5C 163.833,154.5 154.167,154.5 144.5,154.5C 144.802,151.941 144.468,149.607 143.5,147.5C 142.6,142.668 141.934,137.668 141.5,132.5C 151.5,132.5 161.5,132.5 171.5,132.5 Z"/></g>
<g><path style="opacity:1" fill="#e53504" d="M 143.5,147.5 C 144.468,149.607 144.802,151.941 144.5,154.5C 154.167,154.5 163.833,154.5 173.5,154.5C 191.341,154.17 209.008,154.503 226.5,155.5C 198.833,155.5 171.167,155.5 143.5,155.5C 143.5,152.833 143.5,150.167 143.5,147.5 Z"/></g>
<g><path style="opacity:1" fill="#fefefe" d="M 143.5,155.5 C 171.167,155.5 198.833,155.5 226.5,155.5C 223.96,178.778 221.96,202.111 220.5,225.5C 204.956,229.464 189.623,233.797 174.5,238.5C 174.167,238.5 173.833,238.5 173.5,238.5C 173.801,230.414 173.467,222.414 172.5,214.5C 180.865,212.325 189.198,209.992 197.5,207.5C 199.459,198.285 200.459,188.952 200.5,179.5C 191.584,178.501 181.918,178.168 171.5,178.5C 173.41,171.444 174.076,164.111 173.5,156.5C 163.319,156.827 153.319,156.494 143.5,155.5 Z"/></g>
<g><path style="opacity:1" fill="#f06329" d="M 200.5,179.5 C 200.459,188.952 199.459,198.285 197.5,207.5C 189.198,209.992 180.865,212.325 172.5,214.5C 172.5,214.167 172.5,213.833 172.5,213.5C 173.495,202.346 173.828,191.012 173.5,179.5C 182.5,179.5 191.5,179.5 200.5,179.5 Z"/></g>
<g><path style="opacity:1" fill="#eeebea" d="M 172.5,213.5 C 172.5,213.833 172.5,214.167 172.5,214.5C 173.467,222.414 173.801,230.414 173.5,238.5C 158.09,234.481 142.757,230.147 127.5,225.5C 125.507,213.583 124.174,201.583 123.5,189.5C 131.167,189.5 138.833,189.5 146.5,189.5C 146.903,195.621 147.903,201.621 149.5,207.5C 157.057,209.973 164.724,211.973 172.5,213.5 Z"/></g>
</svg>
